<svg xmlns="http://www.w3.org/2000/svg" version="1.200000" width="100%" height="100%" viewBox="0 0 2 2" shape-rendering="crispEdges" xmlns:xlink="http://www.w3.org/1999/xlink">
<polygon points="01.13076209,1.00000000 0.93461915,01.11324341 0.93461855,0.88675694" fill="white" stroke="black" stroke-width="0.01000000"></polygon>
<polygon points="01.13076209,1.00000000 0.93461915,01.11324341 01.16808161,01.29112530" fill="white" stroke="black" stroke-width="0.01000000"></polygon>
<polygon points="01.13076209,1.00000000 0.93461855,0.88675694 01.16808007,0.70887381" fill="white" stroke="black" stroke-width="0.01000000"></polygon>
<polygon points="01.13076209,1.00000000 01.33616271,1.00000000 01.16808161,01.29112530" fill="white" stroke="black" stroke-width="0.01000000"></polygon>
<polygon points="01.13076209,1.00000000 01.33616271,1.00000000 01.16808007,0.70887381" fill="white" stroke="black" stroke-width="0.01000000"></polygon>
<polygon points="0.93461915,01.11324341 0.93461855,0.88675694 0.66383729,01.00000089" fill="white" stroke="black" stroke-width="0.01000000"></polygon>
<polygon points="0.93461915,01.11324341 01.16808161,01.29112530 0.83191916,01.29112575" fill="white" stroke="black" stroke-width="0.01000000"></polygon>
<polygon points="0.93461915,01.11324341 0.83191916,01.29112575 0.66383729,01.00000089" fill="white" stroke="black" stroke-width="0.01000000"></polygon>
<polygon points="0.93461855,0.88675694 0.66383729,01.00000089 0.83191761,0.70887515" fill="white" stroke="black" stroke-width="0.01000000"></polygon>
<polygon points="0.93461855,0.88675694 0.83191761,0.70887515 01.16808007,0.70887381" fill="white" stroke="black" stroke-width="0.01000000"></polygon>
<polygon points="01.33616271,1.00000000 01.16808161,01.29112530 01.51977497,01.30009192" fill="white" stroke="black" stroke-width="0.01000000"></polygon>
<polygon points="01.33616271,1.00000000 01.16808007,0.70887381 01.51977338,0.69990533" fill="white" stroke="black" stroke-width="0.01000000"></polygon>
<polygon points="01.33616271,1.00000000 01.60018429,1.00000000 01.51977497,01.30009192" fill="white" stroke="black" stroke-width="0.01000000"></polygon>
<polygon points="01.33616271,1.00000000 01.60018429,1.00000000 01.51977338,0.69990533" fill="white" stroke="black" stroke-width="0.01000000"></polygon>
<polygon points="01.16808161,01.29112530 0.83191916,01.29112575 01.00000080,01.60018429" fill="white" stroke="black" stroke-width="0.01000000"></polygon>
<polygon points="01.16808161,01.29112530 01.51977497,01.30009192 01.30009260,01.51977458" fill="white" stroke="black" stroke-width="0.01000000"></polygon>
<polygon points="01.16808161,01.29112530 01.30009260,01.51977458 01.00000080,01.60018429" fill="white" stroke="black" stroke-width="0.01000000"></polygon>
<polygon points="0.83191916,01.29112575 0.66383729,01.00000089 0.48022582,01.30009329" fill="white" stroke="black" stroke-width="0.01000000"></polygon>
<polygon points="0.83191916,01.29112575 01.00000080,01.60018429 0.69990877,01.51977537" fill="white" stroke="black" stroke-width="0.01000000"></polygon>
<polygon points="0.83191916,01.29112575 0.69990877,01.51977537 0.48022582,01.30009329" fill="white" stroke="black" stroke-width="0.01000000"></polygon>
<polygon points="0.66383729,01.00000089 0.83191761,0.70887515 0.48022423,0.69990946" fill="white" stroke="black" stroke-width="0.01000000"></polygon>
<polygon points="0.66383729,01.00000089 0.48022582,01.30009329 0.39981571,01.00000159" fill="white" stroke="black" stroke-width="0.01000000"></polygon>
<polygon points="0.66383729,01.00000089 0.39981571,01.00000159 0.48022423,0.69990946" fill="white" stroke="black" stroke-width="0.01000000"></polygon>
<polygon points="0.83191761,0.70887515 01.16808007,0.70887381 0.99999761,0.39981571" fill="white" stroke="black" stroke-width="0.01000000"></polygon>
<polygon points="0.83191761,0.70887515 0.48022423,0.69990946 0.69990602,0.48022622" fill="white" stroke="black" stroke-width="0.01000000"></polygon>
<polygon points="0.83191761,0.70887515 0.69990602,0.48022622 0.99999761,0.39981571" fill="white" stroke="black" stroke-width="0.01000000"></polygon>
<polygon points="01.16808007,0.70887381 0.99999761,0.39981571 01.30008985,0.48022383" fill="white" stroke="black" stroke-width="0.01000000"></polygon>
<polygon points="01.16808007,0.70887381 01.30008985,0.48022383 01.51977338,0.69990533" fill="white" stroke="black" stroke-width="0.01000000"></polygon>
<polygon points="01.60018429,1.00000000 01.51977497,01.30009192 01.80739437,01.21634048" fill="white" stroke="black" stroke-width="0.01000000"></polygon>
<polygon points="01.60018429,1.00000000 01.51977338,0.69990533 01.80739322,0.78365524" fill="white" stroke="black" stroke-width="0.01000000"></polygon>
<polygon points="01.60018429,1.00000000 01.83587611,1.00000000 01.80739437,01.21634048" fill="white" stroke="black" stroke-width="0.01000000"></polygon>
<polygon points="01.60018429,1.00000000 01.83587611,1.00000000 01.80739322,0.78365524" fill="white" stroke="black" stroke-width="0.01000000"></polygon>
<polygon points="01.51977497,01.30009192 01.30009260,01.51977458 01.59105406,01.59105327" fill="white" stroke="black" stroke-width="0.01000000"></polygon>
<polygon points="01.51977497,01.30009192 01.80739437,01.21634048 01.72389013,01.41793773" fill="white" stroke="black" stroke-width="0.01000000"></polygon>
<polygon points="01.51977497,01.30009192 01.72389013,01.41793773 01.59105406,01.59105327" fill="white" stroke="black" stroke-width="0.01000000"></polygon>
<polygon points="01.30009260,01.51977458 01.00000080,01.60018429 01.21634155,01.80739408" fill="white" stroke="black" stroke-width="0.01000000"></polygon>
<polygon points="01.30009260,01.51977458 01.59105406,01.59105327 01.41793870,01.72388958" fill="white" stroke="black" stroke-width="0.01000000"></polygon>
<polygon points="01.30009260,01.51977458 01.41793870,01.72388958 01.21634155,01.80739408" fill="white" stroke="black" stroke-width="0.01000000"></polygon>
<polygon points="01.00000080,01.60018429 0.69990877,01.51977537 0.78366059,01.80739466" fill="white" stroke="black" stroke-width="0.01000000"></polygon>
<polygon points="01.00000080,01.60018429 01.21634155,01.80739408 01.00000111,01.83587611" fill="white" stroke="black" stroke-width="0.01000000"></polygon>
<polygon points="01.00000080,01.60018429 01.00000111,01.83587611 0.78366059,01.80739466" fill="white" stroke="black" stroke-width="0.01000000"></polygon>
<polygon points="0.69990877,01.51977537 0.48022582,01.30009329 0.40894751,01.59105484" fill="white" stroke="black" stroke-width="0.01000000"></polygon>
<polygon points="0.69990877,01.51977537 0.78366059,01.80739466 0.58206323,01.72389068" fill="white" stroke="black" stroke-width="0.01000000"></polygon>
<polygon points="0.69990877,01.51977537 0.58206323,01.72389068 0.40894751,01.59105484" fill="white" stroke="black" stroke-width="0.01000000"></polygon>
<polygon points="0.48022582,01.30009329 0.39981571,01.00000159 0.19260620,01.21634262" fill="white" stroke="black" stroke-width="0.01000000"></polygon>
<polygon points="0.48022582,01.30009329 0.40894751,01.59105484 0.27611098,01.41793966" fill="white" stroke="black" stroke-width="0.01000000"></polygon>
<polygon points="0.48022582,01.30009329 0.27611098,01.41793966 0.19260620,01.21634262" fill="white" stroke="black" stroke-width="0.01000000"></polygon>
<polygon points="0.39981571,01.00000159 0.48022423,0.69990946 0.19260506,0.78366166" fill="white" stroke="black" stroke-width="0.01000000"></polygon>
<polygon points="0.39981571,01.00000159 0.19260620,01.21634262 0.16412389,01.00000222" fill="white" stroke="black" stroke-width="0.01000000"></polygon>
<polygon points="0.39981571,01.00000159 0.16412389,01.00000222 0.19260506,0.78366166" fill="white" stroke="black" stroke-width="0.01000000"></polygon>
<polygon points="0.48022423,0.69990946 0.69990602,0.48022622 0.40894437,0.40894830" fill="white" stroke="black" stroke-width="0.01000000"></polygon>
<polygon points="0.48022423,0.69990946 0.19260506,0.78366166 0.27610876,0.58206419" fill="white" stroke="black" stroke-width="0.01000000"></polygon>
<polygon points="0.48022423,0.69990946 0.27610876,0.58206419 0.40894437,0.40894830" fill="white" stroke="black" stroke-width="0.01000000"></polygon>
<polygon points="0.69990602,0.48022622 0.99999761,0.39981571 0.78365631,0.19260649" fill="white" stroke="black" stroke-width="0.01000000"></polygon>
<polygon points="0.69990602,0.48022622 0.40894437,0.40894830 0.58205938,0.27611153" fill="white" stroke="black" stroke-width="0.01000000"></polygon>
<polygon points="0.69990602,0.48022622 0.58205938,0.27611153 0.78365631,0.19260649" fill="white" stroke="black" stroke-width="0.01000000"></polygon>
<polygon points="0.99999761,0.39981571 01.30008985,0.48022383 01.21633726,0.19260477" fill="white" stroke="black" stroke-width="0.01000000"></polygon>
<polygon points="0.99999761,0.39981571 0.78365631,0.19260649 0.99999667,0.16412389" fill="white" stroke="black" stroke-width="0.01000000"></polygon>
<polygon points="0.99999761,0.39981571 0.99999667,0.16412389 01.21633726,0.19260477" fill="white" stroke="black" stroke-width="0.01000000"></polygon>
<polygon points="01.30008985,0.48022383 01.51977338,0.69990533 01.59105092,0.40894359" fill="white" stroke="black" stroke-width="0.01000000"></polygon>
<polygon points="01.30008985,0.48022383 01.21633726,0.19260477 01.41793485,0.27610821" fill="white" stroke="black" stroke-width="0.01000000"></polygon>
<polygon points="01.30008985,0.48022383 01.41793485,0.27610821 01.59105092,0.40894359" fill="white" stroke="black" stroke-width="0.01000000"></polygon>
<polygon points="01.51977338,0.69990533 01.59105092,0.40894359 01.72388791,0.58205842" fill="white" stroke="black" stroke-width="0.01000000"></polygon>
<polygon points="01.51977338,0.69990533 01.72388791,0.58205842 01.80739322,0.78365524" fill="white" stroke="black" stroke-width="0.01000000"></polygon>
<polygon points="01.83587611,1.00000000 01.80739437,01.21634048 01.99144488,01.13052608" fill="white" stroke="black" stroke-width="0.01000000"></polygon>
<polygon points="01.83587611,1.00000000 01.80739322,0.78365524 01.99144418,0.86946866" fill="white" stroke="black" stroke-width="0.01000000"></polygon>
<polygon points="01.83587611,1.00000000 02.00000000,1.00000000 01.99144488,01.13052608" fill="white" stroke="black" stroke-width="0.01000000"></polygon>
<polygon points="01.83587611,1.00000000 02.00000000,1.00000000 01.99144418,0.86946866" fill="white" stroke="black" stroke-width="0.01000000"></polygon>
<polygon points="01.80739437,01.21634048 01.72389013,01.41793773 01.92387966,01.38268313" fill="white" stroke="black" stroke-width="0.01000000"></polygon>
<polygon points="01.80739437,01.21634048 01.99144488,01.13052608 01.96592588,01.25881883" fill="white" stroke="black" stroke-width="0.01000000"></polygon>
<polygon points="01.80739437,01.21634048 01.96592588,01.25881883 01.92387966,01.38268313" fill="white" stroke="black" stroke-width="0.01000000"></polygon>
<polygon points="01.72389013,01.41793773 01.59105406,01.59105327 01.79335368,01.60876099" fill="white" stroke="black" stroke-width="0.01000000"></polygon>
<polygon points="01.72389013,01.41793773 01.92387966,01.38268313 01.86602562,01.49999962" fill="white" stroke="black" stroke-width="0.01000000"></polygon>
<polygon points="01.72389013,01.41793773 01.86602562,01.49999962 01.79335368,01.60876099" fill="white" stroke="black" stroke-width="0.01000000"></polygon>
<polygon points="01.59105406,01.59105327 01.41793870,01.72388958 01.60876204,01.79335287" fill="white" stroke="black" stroke-width="0.01000000"></polygon>
<polygon points="01.59105406,01.59105327 01.79335368,01.60876099 01.70710725,01.70710631" fill="white" stroke="black" stroke-width="0.01000000"></polygon>
<polygon points="01.59105406,01.59105327 01.70710725,01.70710631 01.60876204,01.79335287" fill="white" stroke="black" stroke-width="0.01000000"></polygon>
<polygon points="01.41793870,01.72388958 01.21634155,01.80739408 01.38268435,01.92387915" fill="white" stroke="black" stroke-width="0.01000000"></polygon>
<polygon points="01.41793870,01.72388958 01.60876204,01.79335287 01.50000077,01.86602496" fill="white" stroke="black" stroke-width="0.01000000"></polygon>
<polygon points="01.41793870,01.72388958 01.50000077,01.86602496 01.38268435,01.92387915" fill="white" stroke="black" stroke-width="0.01000000"></polygon>
<polygon points="01.21634155,01.80739408 01.00000111,01.83587611 01.13052740,01.99144470" fill="white" stroke="black" stroke-width="0.01000000"></polygon>
<polygon points="01.21634155,01.80739408 01.38268435,01.92387915 01.25882011,01.96592554" fill="white" stroke="black" stroke-width="0.01000000"></polygon>
<polygon points="01.21634155,01.80739408 01.25882011,01.96592554 01.13052740,01.99144470" fill="white" stroke="black" stroke-width="0.01000000"></polygon>
<polygon points="01.00000111,01.83587611 0.78366059,01.80739466 0.86947523,01.99144505" fill="white" stroke="black" stroke-width="0.01000000"></polygon>
<polygon points="01.00000111,01.83587611 01.13052740,01.99144470 01.00000133,02.00000000" fill="white" stroke="black" stroke-width="0.01000000"></polygon>
<polygon points="01.00000111,01.83587611 01.00000133,02.00000000 0.86947523,01.99144505" fill="white" stroke="black" stroke-width="0.01000000"></polygon>
<polygon points="0.78366059,01.80739466 0.58206323,01.72389068 0.61731810,01.92388017" fill="white" stroke="black" stroke-width="0.01000000"></polygon>
<polygon points="0.78366059,01.80739466 0.86947523,01.99144505 0.74118245,01.96592623" fill="white" stroke="black" stroke-width="0.01000000"></polygon>
<polygon points="0.78366059,01.80739466 0.74118245,01.96592623 0.61731810,01.92388017" fill="white" stroke="black" stroke-width="0.01000000"></polygon>
<polygon points="0.58206323,01.72389068 0.40894751,01.59105484 0.39124006,01.79335448" fill="white" stroke="black" stroke-width="0.01000000"></polygon>
<polygon points="0.58206323,01.72389068 0.61731810,01.92388017 0.50000153,01.86602629" fill="white" stroke="black" stroke-width="0.01000000"></polygon>
<polygon points="0.58206323,01.72389068 0.50000153,01.86602629 0.39124006,01.79335448" fill="white" stroke="black" stroke-width="0.01000000"></polygon>
<polygon points="0.40894751,01.59105484 0.27611098,01.41793966 0.20664794,01.60876310" fill="white" stroke="black" stroke-width="0.01000000"></polygon>
<polygon points="0.40894751,01.59105484 0.39124006,01.79335448 0.29289463,01.70710819" fill="white" stroke="black" stroke-width="0.01000000"></polygon>
<polygon points="0.40894751,01.59105484 0.29289463,01.70710819 0.20664794,01.60876310" fill="white" stroke="black" stroke-width="0.01000000"></polygon>
<polygon points="0.27611098,01.41793966 0.19260620,01.21634262 0.07612136,01.38268558" fill="white" stroke="black" stroke-width="0.01000000"></polygon>
<polygon points="0.27611098,01.41793966 0.20664794,01.60876310 0.13397570,01.50000192" fill="white" stroke="black" stroke-width="0.01000000"></polygon>
<polygon points="0.27611098,01.41793966 0.13397570,01.50000192 0.07612136,01.38268558" fill="white" stroke="black" stroke-width="0.01000000"></polygon>
<polygon points="0.19260620,01.21634262 0.16412389,01.00000222 0.00855547,01.13052871" fill="white" stroke="black" stroke-width="0.01000000"></polygon>
<polygon points="0.19260620,01.21634262 0.07612136,01.38268558 0.03407480,01.25882139" fill="white" stroke="black" stroke-width="0.01000000"></polygon>
<polygon points="0.19260620,01.21634262 0.03407480,01.25882139 0.00855547,01.13052871" fill="white" stroke="black" stroke-width="0.01000000"></polygon>
<polygon points="0.16412389,01.00000222 0.19260506,0.78366166 0.00855478,0.86947655" fill="white" stroke="black" stroke-width="0.01000000"></polygon>
<polygon points="0.16412389,01.00000222 0.00855547,01.13052871 0.00000000,01.00000265" fill="white" stroke="black" stroke-width="0.01000000"></polygon>
<polygon points="0.16412389,01.00000222 0.00000000,01.00000265 0.00855478,0.86947655" fill="white" stroke="black" stroke-width="0.01000000"></polygon>
<polygon points="0.19260506,0.78366166 0.27610876,0.58206419 0.07611933,0.61731933" fill="white" stroke="black" stroke-width="0.01000000"></polygon>
<polygon points="0.19260506,0.78366166 0.00855478,0.86947655 0.03407343,0.74118373" fill="white" stroke="black" stroke-width="0.01000000"></polygon>
<polygon points="0.19260506,0.78366166 0.03407343,0.74118373 0.07611933,0.61731933" fill="white" stroke="black" stroke-width="0.01000000"></polygon>
<polygon points="0.27610876,0.58206419 0.40894437,0.40894830 0.20664471,0.39124111" fill="white" stroke="black" stroke-width="0.01000000"></polygon>
<polygon points="0.27610876,0.58206419 0.07611933,0.61731933 0.13397305,0.50000268" fill="white" stroke="black" stroke-width="0.01000000"></polygon>
<polygon points="0.27610876,0.58206419 0.13397305,0.50000268 0.20664471,0.39124111" fill="white" stroke="black" stroke-width="0.01000000"></polygon>
<polygon points="0.40894437,0.40894830 0.58205938,0.27611153 0.39123585,0.20664875" fill="white" stroke="black" stroke-width="0.01000000"></polygon>
<polygon points="0.40894437,0.40894830 0.20664471,0.39124111 0.29289087,0.29289556" fill="white" stroke="black" stroke-width="0.01000000"></polygon>
<polygon points="0.40894437,0.40894830 0.29289087,0.29289556 0.39123585,0.20664875" fill="white" stroke="black" stroke-width="0.01000000"></polygon>
<polygon points="0.58205938,0.27611153 0.78365631,0.19260649 0.61731320,0.07612186" fill="white" stroke="black" stroke-width="0.01000000"></polygon>
<polygon points="0.58205938,0.27611153 0.39123585,0.20664875 0.49999694,0.13397637" fill="white" stroke="black" stroke-width="0.01000000"></polygon>
<polygon points="0.58205938,0.27611153 0.49999694,0.13397637 0.61731320,0.07612186" fill="white" stroke="black" stroke-width="0.01000000"></polygon>
<polygon points="0.78365631,0.19260649 0.99999667,0.16412389 0.86946997,0.00855564" fill="white" stroke="black" stroke-width="0.01000000"></polygon>
<polygon points="0.78365631,0.19260649 0.61731320,0.07612186 0.74117732,0.03407515" fill="white" stroke="black" stroke-width="0.01000000"></polygon>
<polygon points="0.78365631,0.19260649 0.74117732,0.03407515 0.86946997,0.00855564" fill="white" stroke="black" stroke-width="0.01000000"></polygon>
<polygon points="0.99999667,0.16412389 01.21633726,0.19260477 01.13052214,0.00855460" fill="white" stroke="black" stroke-width="0.01000000"></polygon>
<polygon points="0.99999667,0.16412389 0.86946997,0.00855564 0.99999602,0.00000000" fill="white" stroke="black" stroke-width="0.01000000"></polygon>
<polygon points="0.99999667,0.16412389 0.99999602,0.00000000 01.13052214,0.00855460" fill="white" stroke="black" stroke-width="0.01000000"></polygon>
<polygon points="01.21633726,0.19260477 01.41793485,0.27610821 01.38267945,0.07611882" fill="white" stroke="black" stroke-width="0.01000000"></polygon>
<polygon points="01.21633726,0.19260477 01.13052214,0.00855460 01.25881499,0.03407309" fill="white" stroke="black" stroke-width="0.01000000"></polygon>
<polygon points="01.21633726,0.19260477 01.25881499,0.03407309 01.38267945,0.07611882" fill="white" stroke="black" stroke-width="0.01000000"></polygon>
<polygon points="01.41793485,0.27610821 01.59105092,0.40894359 01.60875783,0.20664390" fill="white" stroke="black" stroke-width="0.01000000"></polygon>
<polygon points="01.41793485,0.27610821 01.38267945,0.07611882 01.49999617,0.13397238" fill="white" stroke="black" stroke-width="0.01000000"></polygon>
<polygon points="01.41793485,0.27610821 01.49999617,0.13397238 01.60875783,0.20664390" fill="white" stroke="black" stroke-width="0.01000000"></polygon>
<polygon points="01.59105092,0.40894359 01.72388791,0.58205842 01.79335045,0.39123480" fill="white" stroke="black" stroke-width="0.01000000"></polygon>
<polygon points="01.59105092,0.40894359 01.60875783,0.20664390 01.70710350,0.29288994" fill="white" stroke="black" stroke-width="0.01000000"></polygon>
<polygon points="01.59105092,0.40894359 01.70710350,0.29288994 01.79335045,0.39123480" fill="white" stroke="black" stroke-width="0.01000000"></polygon>
<polygon points="01.72388791,0.58205842 01.80739322,0.78365524 01.92387763,0.61731197" fill="white" stroke="black" stroke-width="0.01000000"></polygon>
<polygon points="01.72388791,0.58205842 01.79335045,0.39123480 01.86602297,0.49999579" fill="white" stroke="black" stroke-width="0.01000000"></polygon>
<polygon points="01.72388791,0.58205842 01.86602297,0.49999579 01.92387763,0.61731197" fill="white" stroke="black" stroke-width="0.01000000"></polygon>
<polygon points="01.80739322,0.78365524 01.92387763,0.61731197 01.96592451,0.74117604" fill="white" stroke="black" stroke-width="0.01000000"></polygon>
<polygon points="01.80739322,0.78365524 01.96592451,0.74117604 01.99144418,0.86946866" fill="white" stroke="black" stroke-width="0.01000000"></polygon>
</svg>