<svg xmlns="http://www.w3.org/2000/svg" version="1.200000" width="100%" height="100%" viewBox="0 0 2 2" shape-rendering="crispEdges" xmlns:xlink="http://www.w3.org/1999/xlink">
<polygon points="01.15643717,1.00000000 01.03910941,01.06773935 01.03910905,0.93226086" fill="white" stroke="black" stroke-width="0.01000000"></polygon>
<polygon points="01.15643717,1.00000000 01.03910941,01.06773935 01.20108436,01.34828762" fill="white" stroke="black" stroke-width="0.01000000"></polygon>
<polygon points="01.15643717,1.00000000 01.03910905,0.93226086 01.20108251,0.65171131" fill="white" stroke="black" stroke-width="0.01000000"></polygon>
<polygon points="01.15643717,1.00000000 01.27930264,1.00000000 01.20108436,01.34828762" fill="white" stroke="black" stroke-width="0.01000000"></polygon>
<polygon points="01.15643717,1.00000000 01.27930264,1.00000000 01.20108251,0.65171131" fill="white" stroke="black" stroke-width="0.01000000"></polygon>
<polygon points="0.92178165,01.13547870 0.92178129,01.00000021 0.59783189,01.00000107" fill="white" stroke="black" stroke-width="0.01000000"></polygon>
<polygon points="0.92178165,01.13547870 01.06143301,01.24188316 0.86034911,01.24188343" fill="white" stroke="black" stroke-width="0.01000000"></polygon>
<polygon points="0.92178165,01.13547870 0.86034911,01.24188343 0.59783189,01.00000107" fill="white" stroke="black" stroke-width="0.01000000"></polygon>
<polygon points="0.92178093,0.86452171 0.75980641,0.93226139 0.86034782,0.75811731" fill="white" stroke="black" stroke-width="0.01000000"></polygon>
<polygon points="0.92178093,0.86452171 0.86034782,0.75811731 01.20108251,0.65171131" fill="white" stroke="black" stroke-width="0.01000000"></polygon>
<polygon points="01.40216811,1.00000000 01.30162623,01.17414381 01.62183255,01.35901482" fill="white" stroke="black" stroke-width="0.01000000"></polygon>
<polygon points="01.40216811,1.00000000 01.20108251,0.65171131 01.62183065,0.64098187" fill="white" stroke="black" stroke-width="0.01000000"></polygon>
<polygon points="01.40216811,1.00000000 01.56009915,1.00000000 01.62183255,01.35901482" fill="white" stroke="black" stroke-width="0.01000000"></polygon>
<polygon points="01.40216811,1.00000000 01.56009915,1.00000000 01.62183065,0.64098187" fill="white" stroke="black" stroke-width="0.01000000"></polygon>
<polygon points="01.20108436,01.34828762 01.00000046,01.34828789 01.00000095,01.71803020" fill="white" stroke="black" stroke-width="0.01000000"></polygon>
<polygon points="01.20108436,01.34828762 01.41145846,01.35365122 01.28005001,01.48505985" fill="white" stroke="black" stroke-width="0.01000000"></polygon>
<polygon points="01.20108436,01.34828762 01.28005001,01.48505985 01.00000095,01.71803020" fill="white" stroke="black" stroke-width="0.01000000"></polygon>
<polygon points="0.79891656,01.34828815 0.69837423,01.17414461 0.37816840,01.35901648" fill="white" stroke="black" stroke-width="0.01000000"></polygon>
<polygon points="0.79891656,01.34828815 0.89945876,01.53315918 0.71995128,01.48506059" fill="white" stroke="black" stroke-width="0.01000000"></polygon>
<polygon points="0.79891656,01.34828815 0.71995128,01.48506059 0.37816840,01.35901648" fill="white" stroke="black" stroke-width="0.01000000"></polygon>
<polygon points="0.59783189,01.00000107 0.69837330,0.82585699 0.48799919,0.82049395" fill="white" stroke="black" stroke-width="0.01000000"></polygon>
<polygon points="0.59783189,01.00000107 0.48800015,01.17950877 0.43990085,01.00000149" fill="white" stroke="black" stroke-width="0.01000000"></polygon>
<polygon points="0.59783189,01.00000107 0.43990085,01.00000149 0.48799919,0.82049395" fill="white" stroke="black" stroke-width="0.01000000"></polygon>
<polygon points="0.79891471,0.65171291 0.99999861,0.65171211 0.89945593,0.46684136" fill="white" stroke="black" stroke-width="0.01000000"></polygon>
<polygon points="0.79891471,0.65171291 0.69372766,0.64903139 0.75943171,0.58332690" fill="white" stroke="black" stroke-width="0.01000000"></polygon>
<polygon points="0.79891471,0.65171291 0.75943171,0.58332690 0.89945593,0.46684136" fill="white" stroke="black" stroke-width="0.01000000"></polygon>
<polygon points="01.20108251,0.65171131 01.10053983,0.46684056 01.35901235,0.37816602" fill="white" stroke="black" stroke-width="0.01000000"></polygon>
<polygon points="01.20108251,0.65171131 01.35901235,0.37816602 01.62183065,0.64098187" fill="white" stroke="black" stroke-width="0.01000000"></polygon>
<polygon points="01.71803020,1.00000000 01.66993138,01.17950741 01.84197804,01.12940942" fill="white" stroke="black" stroke-width="0.01000000"></polygon>
<polygon points="01.71803020,1.00000000 01.62183065,0.64098187 01.96592451,0.74117604" fill="white" stroke="black" stroke-width="0.01000000"></polygon>
<polygon points="01.71803020,1.00000000 01.85901510,1.00000000 01.84197804,01.12940942" fill="white" stroke="black" stroke-width="0.01000000"></polygon>
<polygon points="01.71803020,1.00000000 01.85901510,1.00000000 01.96592451,0.74117604" fill="white" stroke="black" stroke-width="0.01000000"></polygon>
<polygon points="01.62183255,01.35901482 01.49042410,01.49042345 01.66446990,01.53306057" fill="white" stroke="black" stroke-width="0.01000000"></polygon>
<polygon points="01.62183255,01.35901482 01.79387922,01.30891683 01.74392909,01.42950722" fill="white" stroke="black" stroke-width="0.01000000"></polygon>
<polygon points="01.62183255,01.35901482 01.74392909,01.42950722 01.66446990,01.53306057" fill="white" stroke="black" stroke-width="0.01000000"></polygon>
<polygon points="01.35901565,01.62183208 01.00000095,01.71803020 01.25882011,01.96592554" fill="white" stroke="black" stroke-width="0.01000000"></polygon>
<polygon points="01.35901565,01.62183208 01.53306145,01.66446919 01.50000077,01.86602496" fill="white" stroke="black" stroke-width="0.01000000"></polygon>
<polygon points="01.35901565,01.62183208 01.50000077,01.86602496 01.25882011,01.96592554" fill="white" stroke="black" stroke-width="0.01000000"></polygon>
<polygon points="01.00000095,01.71803020 0.64098600,01.62183303 0.74118245,01.96592623" fill="white" stroke="black" stroke-width="0.01000000"></polygon>
<polygon points="01.00000095,01.71803020 01.25882011,01.96592554 01.00000133,02.00000000" fill="white" stroke="black" stroke-width="0.01000000"></polygon>
<polygon points="01.00000095,01.71803020 01.00000133,02.00000000 0.74118245,01.96592623" fill="white" stroke="black" stroke-width="0.01000000"></polygon>
<polygon points="0.64098600,01.62183303 0.50957720,01.49042475 0.29289463,01.70710819" fill="white" stroke="black" stroke-width="0.01000000"></polygon>
<polygon points="0.64098600,01.62183303 0.74118245,01.96592623 0.50000153,01.86602629" fill="white" stroke="black" stroke-width="0.01000000"></polygon>
<polygon points="0.64098600,01.62183303 0.50000153,01.86602629 0.29289463,01.70710819" fill="white" stroke="black" stroke-width="0.01000000"></polygon>
<polygon points="0.37816840,01.35901648 0.28196980,01.00000191 0.03407480,01.25882139" fill="white" stroke="black" stroke-width="0.01000000"></polygon>
<polygon points="0.37816840,01.35901648 0.29289463,01.70710819 0.13397570,01.50000192" fill="white" stroke="black" stroke-width="0.01000000"></polygon>
<polygon points="0.37816840,01.35901648 0.13397570,01.50000192 0.03407480,01.25882139" fill="white" stroke="black" stroke-width="0.01000000"></polygon>
<polygon points="0.28196980,01.00000191 0.37816649,0.64098683 0.03407343,0.74118373" fill="white" stroke="black" stroke-width="0.01000000"></polygon>
<polygon points="0.28196980,01.00000191 0.03407480,01.25882139 0.00000000,01.00000265" fill="white" stroke="black" stroke-width="0.01000000"></polygon>
<polygon points="0.28196980,01.00000191 0.00000000,01.00000265 0.03407343,0.74118373" fill="white" stroke="black" stroke-width="0.01000000"></polygon>
<polygon points="0.37816649,0.64098683 0.50957460,0.50957785 0.29289087,0.29289556" fill="white" stroke="black" stroke-width="0.01000000"></polygon>
<polygon points="0.37816649,0.64098683 0.03407343,0.74118373 0.13397305,0.50000268" fill="white" stroke="black" stroke-width="0.01000000"></polygon>
<polygon points="0.37816649,0.64098683 0.13397305,0.50000268 0.29289087,0.29289556" fill="white" stroke="black" stroke-width="0.01000000"></polygon>
<polygon points="0.64098270,0.37816888 0.82048992,0.33006934 0.74117732,0.03407515" fill="white" stroke="black" stroke-width="0.01000000"></polygon>
<polygon points="0.64098270,0.37816888 0.29289087,0.29289556 0.49999694,0.13397637" fill="white" stroke="black" stroke-width="0.01000000"></polygon>
<polygon points="0.64098270,0.37816888 0.49999694,0.13397637 0.74117732,0.03407515" fill="white" stroke="black" stroke-width="0.01000000"></polygon>
<polygon points="0.99999714,0.28196980 01.17950475,0.33006791 01.25881499,0.03407309" fill="white" stroke="black" stroke-width="0.01000000"></polygon>
<polygon points="0.99999714,0.28196980 0.74117732,0.03407515 0.99999602,0.00000000" fill="white" stroke="black" stroke-width="0.01000000"></polygon>
<polygon points="0.99999714,0.28196980 0.99999602,0.00000000 01.25881499,0.03407309" fill="white" stroke="black" stroke-width="0.01000000"></polygon>
<polygon points="01.35901235,0.37816602 01.62183065,0.64098187 01.70710350,0.29288994" fill="white" stroke="black" stroke-width="0.01000000"></polygon>
<polygon points="01.35901235,0.37816602 01.30891367,0.20611955 01.42950426,0.25606920" fill="white" stroke="black" stroke-width="0.01000000"></polygon>
<polygon points="01.35901235,0.37816602 01.42950426,0.25606920 01.70710350,0.29288994" fill="white" stroke="black" stroke-width="0.01000000"></polygon>
<polygon points="01.62183065,0.64098187 01.70710350,0.29288994 01.86602297,0.49999579" fill="white" stroke="black" stroke-width="0.01000000"></polygon>
<polygon points="01.62183065,0.64098187 01.86602297,0.49999579 01.96592451,0.74117604" fill="white" stroke="black" stroke-width="0.01000000"></polygon>
<polygon points="01.27930264,1.00000000 01.40216811,1.00000000 01.20108251,0.65171131" fill="white" stroke="black" stroke-width="0.01000000"></polygon>
<polygon points="01.27930264,1.00000000 01.40216811,1.00000000 01.30162623,01.17414381" fill="white" stroke="black" stroke-width="0.01000000"></polygon>
<polygon points="01.30162623,01.17414381 01.20108436,01.34828762 01.41145846,01.35365122" fill="white" stroke="black" stroke-width="0.01000000"></polygon>
<polygon points="01.27930264,1.00000000 01.30162623,01.17414381 01.20108436,01.34828762" fill="white" stroke="black" stroke-width="0.01000000"></polygon>
<polygon points="01.41145846,01.35365122 01.62183255,01.35901482 01.49042410,01.49042345" fill="white" stroke="black" stroke-width="0.01000000"></polygon>
<polygon points="01.30162623,01.17414381 01.41145846,01.35365122 01.62183255,01.35901482" fill="white" stroke="black" stroke-width="0.01000000"></polygon>
<polygon points="01.28005001,01.48505985 01.35901565,01.62183208 01.00000095,01.71803020" fill="white" stroke="black" stroke-width="0.01000000"></polygon>
<polygon points="01.41145846,01.35365122 01.28005001,01.48505985 01.35901565,01.62183208" fill="white" stroke="black" stroke-width="0.01000000"></polygon>
<polygon points="01.49042410,01.49042345 01.35901565,01.62183208 01.53306145,01.66446919" fill="white" stroke="black" stroke-width="0.01000000"></polygon>
<polygon points="01.41145846,01.35365122 01.49042410,01.49042345 01.35901565,01.62183208" fill="white" stroke="black" stroke-width="0.01000000"></polygon>
<polygon points="01.53306145,01.66446919 01.62008435,01.68578775 01.60355401,01.78656564" fill="white" stroke="black" stroke-width="0.01000000"></polygon>
<polygon points="01.49042410,01.49042345 01.53306145,01.66446919 01.59876568,01.59876488" fill="white" stroke="black" stroke-width="0.01000000"></polygon>
<polygon points="01.03910941,01.06773935 0.92178165,01.13547870 01.06143301,01.24188316" fill="white" stroke="black" stroke-width="0.01000000"></polygon>
<polygon points="01.03910941,01.06773935 0.92178165,01.13547870 0.92178129,01.00000021" fill="white" stroke="black" stroke-width="0.01000000"></polygon>
<polygon points="0.92178129,01.00000021 0.92178093,0.86452171 0.75980641,0.93226139" fill="white" stroke="black" stroke-width="0.01000000"></polygon>
<polygon points="01.03910941,01.06773935 0.92178129,01.00000021 0.92178093,0.86452171" fill="white" stroke="black" stroke-width="0.01000000"></polygon>
<polygon points="0.75980641,0.93226139 0.59783189,01.00000107 0.69837330,0.82585699" fill="white" stroke="black" stroke-width="0.01000000"></polygon>
<polygon points="0.92178129,01.00000021 0.75980641,0.93226139 0.59783189,01.00000107" fill="white" stroke="black" stroke-width="0.01000000"></polygon>
<polygon points="0.69837330,0.82585699 0.74864401,0.73878495 0.58854060,0.64634987" fill="white" stroke="black" stroke-width="0.01000000"></polygon>
<polygon points="0.75980641,0.93226139 0.69837330,0.82585699 0.77936056,0.79198715" fill="white" stroke="black" stroke-width="0.01000000"></polygon>
<polygon points="0.86034782,0.75811731 0.79891471,0.65171291 0.99999861,0.65171211" fill="white" stroke="black" stroke-width="0.01000000"></polygon>
<polygon points="0.75980641,0.93226139 0.86034782,0.75811731 0.77936056,0.79198715" fill="white" stroke="black" stroke-width="0.01000000"></polygon>
<polygon points="0.99999861,0.65171211 01.20108251,0.65171131 01.10053983,0.46684056" fill="white" stroke="black" stroke-width="0.01000000"></polygon>
<polygon points="0.86034782,0.75811731 0.99999861,0.65171211 01.20108251,0.65171131" fill="white" stroke="black" stroke-width="0.01000000"></polygon>
<polygon points="01.10053983,0.46684056 01.05026848,0.37440518 01.17950475,0.33006791" fill="white" stroke="black" stroke-width="0.01000000"></polygon>
<polygon points="0.99999861,0.65171211 01.10053983,0.46684056 0.99999788,0.46684096" fill="white" stroke="black" stroke-width="0.01000000"></polygon>
<polygon points="01.17950475,0.33006791 01.35901235,0.37816602 01.30891367,0.20611955" fill="white" stroke="black" stroke-width="0.01000000"></polygon>
<polygon points="01.10053983,0.46684056 01.17950475,0.33006791 01.35901235,0.37816602" fill="white" stroke="black" stroke-width="0.01000000"></polygon>
<polygon points="01.30891367,0.20611955 01.25881499,0.03407309 01.37940558,0.08402274" fill="white" stroke="black" stroke-width="0.01000000"></polygon>
<polygon points="01.17950475,0.33006791 01.30891367,0.20611955 01.25881499,0.03407309" fill="white" stroke="black" stroke-width="0.01000000"></polygon>
<polygon points="01.42950426,0.25606920 01.49999617,0.13397238 01.70710350,0.29288994" fill="white" stroke="black" stroke-width="0.01000000"></polygon>
<polygon points="01.30891367,0.20611955 01.42950426,0.25606920 01.49999617,0.13397238" fill="white" stroke="black" stroke-width="0.01000000"></polygon>
<polygon points="0.58854060,0.64634987 0.48335355,0.64366835 0.50957460,0.50957785" fill="white" stroke="black" stroke-width="0.01000000"></polygon>
<polygon points="0.69837330,0.82585699 0.58854060,0.64634987 0.53826990,0.73342191" fill="white" stroke="black" stroke-width="0.01000000"></polygon>
<polygon points="0.71994871,0.51494090 0.64098270,0.37816888 0.82048992,0.33006934" fill="white" stroke="black" stroke-width="0.01000000"></polygon>
<polygon points="0.58854060,0.64634987 0.71994871,0.51494090 0.64098270,0.37816888" fill="white" stroke="black" stroke-width="0.01000000"></polygon>
<polygon points="0.71994871,0.51494090 0.80970232,0.49089113 0.85997292,0.39845535" fill="white" stroke="black" stroke-width="0.01000000"></polygon>
<polygon points="0.99999861,0.65171211 0.89945593,0.46684136 0.99999788,0.46684096" fill="white" stroke="black" stroke-width="0.01000000"></polygon>
<polygon points="0.89945593,0.46684136 0.99999788,0.46684096 0.99999714,0.28196980" fill="white" stroke="black" stroke-width="0.01000000"></polygon>
<polygon points="01.10053983,0.46684056 0.99999788,0.46684096 01.05026848,0.37440518" fill="white" stroke="black" stroke-width="0.01000000"></polygon>
<polygon points="01.06143301,01.24188316 01.20108436,01.34828762 01.00000046,01.34828789" fill="white" stroke="black" stroke-width="0.01000000"></polygon>
<polygon points="01.03910941,01.06773935 01.06143301,01.24188316 01.20108436,01.34828762" fill="white" stroke="black" stroke-width="0.01000000"></polygon>
<polygon points="0.86034911,01.24188343 0.79891656,01.34828815 0.69837423,01.17414461" fill="white" stroke="black" stroke-width="0.01000000"></polygon>
<polygon points="01.06143301,01.24188316 0.86034911,01.24188343 0.79891656,01.34828815" fill="white" stroke="black" stroke-width="0.01000000"></polygon>
<polygon points="0.69837423,01.17414461 0.59783189,01.00000107 0.48800015,01.17950877" fill="white" stroke="black" stroke-width="0.01000000"></polygon>
<polygon points="0.86034911,01.24188343 0.69837423,01.17414461 0.59783189,01.00000107" fill="white" stroke="black" stroke-width="0.01000000"></polygon>
<polygon points="0.48800015,01.17950877 0.37816840,01.35901648 0.28196980,01.00000191" fill="white" stroke="black" stroke-width="0.01000000"></polygon>
<polygon points="0.69837423,01.17414461 0.48800015,01.17950877 0.37816840,01.35901648" fill="white" stroke="black" stroke-width="0.01000000"></polygon>
<polygon points="0.43990085,01.00000149 0.28196980,01.00000191 0.37816649,0.64098683" fill="white" stroke="black" stroke-width="0.01000000"></polygon>
<polygon points="0.48800015,01.17950877 0.43990085,01.00000149 0.28196980,01.00000191" fill="white" stroke="black" stroke-width="0.01000000"></polygon>
<polygon points="0.43990085,01.00000149 0.48799919,0.82049395 0.37816649,0.64098683" fill="white" stroke="black" stroke-width="0.01000000"></polygon>
<polygon points="0.69837330,0.82585699 0.48799919,0.82049395 0.53826990,0.73342191" fill="white" stroke="black" stroke-width="0.01000000"></polygon>
<polygon points="0.48799919,0.82049395 0.53826990,0.73342191 0.37816649,0.64098683" fill="white" stroke="black" stroke-width="0.01000000"></polygon>
<polygon points="0.58854060,0.64634987 0.53826990,0.73342191 0.48335355,0.64366835" fill="white" stroke="black" stroke-width="0.01000000"></polygon>
<polygon points="0.50957460,0.50957785 0.64098270,0.37816888 0.29289087,0.29289556" fill="white" stroke="black" stroke-width="0.01000000"></polygon>
<polygon points="0.58854060,0.64634987 0.50957460,0.50957785 0.64098270,0.37816888" fill="white" stroke="black" stroke-width="0.01000000"></polygon>
<polygon points="0.53826990,0.73342191 0.48335355,0.64366835 0.37816649,0.64098683" fill="white" stroke="black" stroke-width="0.01000000"></polygon>
<polygon points="0.48335355,0.64366835 0.37816649,0.64098683 0.50957460,0.50957785" fill="white" stroke="black" stroke-width="0.01000000"></polygon>
<polygon points="0.99999788,0.46684096 01.05026848,0.37440518 0.99999714,0.28196980" fill="white" stroke="black" stroke-width="0.01000000"></polygon>
<polygon points="01.05026848,0.37440518 0.99999714,0.28196980 01.17950475,0.33006791" fill="white" stroke="black" stroke-width="0.01000000"></polygon>
<polygon points="01.03910905,0.93226086 0.92178093,0.86452171 01.20108251,0.65171131" fill="white" stroke="black" stroke-width="0.01000000"></polygon>
<polygon points="01.03910941,01.06773935 01.03910905,0.93226086 0.92178093,0.86452171" fill="white" stroke="black" stroke-width="0.01000000"></polygon>
<polygon points="01.00000046,01.34828789 0.79891656,01.34828815 0.89945876,01.53315918" fill="white" stroke="black" stroke-width="0.01000000"></polygon>
<polygon points="01.06143301,01.24188316 01.00000046,01.34828789 0.79891656,01.34828815" fill="white" stroke="black" stroke-width="0.01000000"></polygon>
<polygon points="0.89945876,01.53315918 01.00000095,01.71803020 0.64098600,01.62183303" fill="white" stroke="black" stroke-width="0.01000000"></polygon>
<polygon points="01.00000046,01.34828789 0.89945876,01.53315918 01.00000095,01.71803020" fill="white" stroke="black" stroke-width="0.01000000"></polygon>
<polygon points="0.71995128,01.48506059 0.64098600,01.62183303 0.50957720,01.49042475" fill="white" stroke="black" stroke-width="0.01000000"></polygon>
<polygon points="0.89945876,01.53315918 0.71995128,01.48506059 0.64098600,01.62183303" fill="white" stroke="black" stroke-width="0.01000000"></polygon>
<polygon points="0.50957720,01.49042475 0.37816840,01.35901648 0.29289463,01.70710819" fill="white" stroke="black" stroke-width="0.01000000"></polygon>
<polygon points="0.71995128,01.48506059 0.50957720,01.49042475 0.37816840,01.35901648" fill="white" stroke="black" stroke-width="0.01000000"></polygon>
<polygon points="0.86034782,0.75811731 0.77936056,0.79198715 0.79891471,0.65171291" fill="white" stroke="black" stroke-width="0.01000000"></polygon>
<polygon points="0.69837330,0.82585699 0.77936056,0.79198715 0.74864401,0.73878495" fill="white" stroke="black" stroke-width="0.01000000"></polygon>
<polygon points="0.77936056,0.79198715 0.74864401,0.73878495 0.79891471,0.65171291" fill="white" stroke="black" stroke-width="0.01000000"></polygon>
<polygon points="0.74864401,0.73878495 0.79891471,0.65171291 0.69372766,0.64903139" fill="white" stroke="black" stroke-width="0.01000000"></polygon>
<polygon points="0.69372766,0.64903139 0.58854060,0.64634987 0.71994871,0.51494090" fill="white" stroke="black" stroke-width="0.01000000"></polygon>
<polygon points="0.74864401,0.73878495 0.69372766,0.64903139 0.58854060,0.64634987" fill="white" stroke="black" stroke-width="0.01000000"></polygon>
<polygon points="0.75943171,0.58332690 0.71994871,0.51494090 0.80970232,0.49089113" fill="white" stroke="black" stroke-width="0.01000000"></polygon>
<polygon points="0.69372766,0.64903139 0.75943171,0.58332690 0.71994871,0.51494090" fill="white" stroke="black" stroke-width="0.01000000"></polygon>
<polygon points="0.82048992,0.33006934 0.99999714,0.28196980 0.74117732,0.03407515" fill="white" stroke="black" stroke-width="0.01000000"></polygon>
<polygon points="0.71994871,0.51494090 0.82048992,0.33006934 0.85997292,0.39845535" fill="white" stroke="black" stroke-width="0.01000000"></polygon>
<polygon points="0.89945593,0.46684136 0.85997292,0.39845535 0.99999714,0.28196980" fill="white" stroke="black" stroke-width="0.01000000"></polygon>
<polygon points="0.82048992,0.33006934 0.85997292,0.39845535 0.99999714,0.28196980" fill="white" stroke="black" stroke-width="0.01000000"></polygon>
<polygon points="0.75943171,0.58332690 0.80970232,0.49089113 0.89945593,0.46684136" fill="white" stroke="black" stroke-width="0.01000000"></polygon>
<polygon points="0.80970232,0.49089113 0.89945593,0.46684136 0.85997292,0.39845535" fill="white" stroke="black" stroke-width="0.01000000"></polygon>
<polygon points="01.30891367,0.20611955 01.37940558,0.08402274 01.49999617,0.13397238" fill="white" stroke="black" stroke-width="0.01000000"></polygon>
<polygon points="01.85901510,1.00000000 02.00000000,1.00000000 01.96592451,0.74117604" fill="white" stroke="black" stroke-width="0.01000000"></polygon>
<polygon points="01.85901510,1.00000000 02.00000000,1.00000000 01.96592588,01.25881883" fill="white" stroke="black" stroke-width="0.01000000"></polygon>
<polygon points="01.56009915,1.00000000 01.71803020,1.00000000 01.62183065,0.64098187" fill="white" stroke="black" stroke-width="0.01000000"></polygon>
<polygon points="01.56009915,1.00000000 01.71803020,1.00000000 01.66993138,01.17950741" fill="white" stroke="black" stroke-width="0.01000000"></polygon>
<polygon points="01.66993138,01.17950741 01.62183255,01.35901482 01.79387922,01.30891683" fill="white" stroke="black" stroke-width="0.01000000"></polygon>
<polygon points="01.56009915,1.00000000 01.66993138,01.17950741 01.62183255,01.35901482" fill="white" stroke="black" stroke-width="0.01000000"></polygon>
<polygon points="01.85901510,1.00000000 01.84197804,01.12940942 01.96592588,01.25881883" fill="white" stroke="black" stroke-width="0.01000000"></polygon>
<polygon points="01.66993138,01.17950741 01.84197804,01.12940942 01.96592588,01.25881883" fill="white" stroke="black" stroke-width="0.01000000"></polygon>
<polygon points="01.79387922,01.30891683 01.96592588,01.25881883 01.86602562,01.49999962" fill="white" stroke="black" stroke-width="0.01000000"></polygon>
<polygon points="01.66993138,01.17950741 01.79387922,01.30891683 01.96592588,01.25881883" fill="white" stroke="black" stroke-width="0.01000000"></polygon>
<polygon points="01.74392909,01.42950722 01.86602562,01.49999962 01.70710725,01.70710631" fill="white" stroke="black" stroke-width="0.01000000"></polygon>
<polygon points="01.79387922,01.30891683 01.74392909,01.42950722 01.86602562,01.49999962" fill="white" stroke="black" stroke-width="0.01000000"></polygon>
<polygon points="01.74392909,01.42950722 01.66446990,01.53306057 01.70710725,01.70710631" fill="white" stroke="black" stroke-width="0.01000000"></polygon>
<polygon points="01.49042410,01.49042345 01.66446990,01.53306057 01.59876568,01.59876488" fill="white" stroke="black" stroke-width="0.01000000"></polygon>
<polygon points="01.66446990,01.53306057 01.59876568,01.59876488 01.70710725,01.70710631" fill="white" stroke="black" stroke-width="0.01000000"></polygon>
<polygon points="01.53306145,01.66446919 01.59876568,01.59876488 01.62008435,01.68578775" fill="white" stroke="black" stroke-width="0.01000000"></polygon>
<polygon points="01.53306145,01.66446919 01.60355401,01.78656564 01.50000077,01.86602496" fill="white" stroke="black" stroke-width="0.01000000"></polygon>
<polygon points="01.59876568,01.59876488 01.62008435,01.68578775 01.70710725,01.70710631" fill="white" stroke="black" stroke-width="0.01000000"></polygon>
<polygon points="01.62008435,01.68578775 01.70710725,01.70710631 01.60355401,01.78656564" fill="white" stroke="black" stroke-width="0.01000000"></polygon>
</svg>